<?xml version="1.0" standalone="no"?>
<!DOCTYPE svg PUBLIC "-//W3C//DTD SVG 20010904//EN"
 "http://www.w3.org/TR/2001/REC-SVG-20010904/DTD/svg10.dtd">
<svg version="1.0" xmlns="http://www.w3.org/2000/svg"
 width="265.000000pt" height="265.000000pt" viewBox="0 0 265.000000 265.000000"
 preserveAspectRatio="xMidYMid meet">
<metadata>
Created by potrace 1.11, written by Peter Selinger 2001-2013
</metadata>
<g transform="translate(0.000000,265.000000) scale(0.100000,-0.100000)"
fill="#000000" stroke="none">
<path d="M1215 2464 c-556 -60 -984 -478 -1044 -1019 -13 -113 -6 -137 49
-169 32 -19 57 -21 300 -27 236 -6 273 -9 335 -29 282 -89 423 -327 463 -782
11 -113 30 -154 87 -182 35 -18 46 -18 114 -8 606 89 1023 603 962 1183 -53
508 -430 918 -931 1013 -85 16 -267 27 -335 20z"/>
<path d="M490 1064 c-229 -61 -376 -314 -316 -540 65 -243 310 -392 542 -330
351 93 461 523 196 766 -114 106 -272 144 -422 104z"/>
</g>
</svg>
